<svg width="12" height="16" viewBox="0 0 12 16" fill="none" xmlns="http://www.w3.org/2000/svg">
<path d="M9.47705 14C7.26191 14 5.32819 12.7904 4.2888 11H9.50046V8.99998H3.56735C3.51229 8.67399 3.47701 8.34136 3.47701 7.99997C3.47701 7.65862 3.51229 7.32596 3.56735 6.99997H9.50046V4.99995H4.2888C5.32816 3.20954 7.26188 1.99997 9.47705 1.99997C10.2114 1.99997 10.9389 2.13768 11.6391 2.40915L12.0005 0.543921C11.0688 0.183108 10.4594 -7.62939e-06 9.47705 -7.62939e-06C6.12708 -7.62939e-06 3.25579 2.072 2.06604 4.99999H0.000488281V7H1.54653C1.50533 7.32839 1.47707 7.66065 1.47707 8.00001C1.47707 8.33937 1.50533 8.67164 1.54653 9.00002H0.000488281V11H2.06604C3.25579 13.928 6.12708 16 9.47705 16C10.4595 16 11.0688 15.8169 12.0005 15.4561L11.6392 13.5909C10.9389 13.8623 10.2114 14 9.47705 14Z" fill="#595D6E"/>
</svg>
