<svg width="21" height="13" viewBox="0 0 21 13" fill="none" xmlns="http://www.w3.org/2000/svg">
<path d="M20.7197 6.01578C18.6134 2.37593 14.6974 0.11499 10.5 0.11499C6.30255 0.11499 2.387 2.37593 0.280345 6.01578L0 6.49991L0.280345 6.98403C2.38661 10.6239 6.30255 12.8848 10.5 12.8848C14.6974 12.8848 18.613 10.6239 20.7197 6.98403L21 6.49991L20.7197 6.01578ZM10.6048 9.93288C8.53913 9.93288 6.8586 8.25235 6.8586 6.18669C6.8586 4.12103 8.53913 2.4405 10.6048 2.4405C12.6705 2.4405 14.351 4.12103 14.351 6.18669C14.351 8.25235 12.6705 9.93288 10.6048 9.93288ZM2.25282 6.49991C3.14374 5.14767 4.34555 4.05413 5.7291 3.28811C5.22177 4.13804 4.9248 5.12718 4.9248 6.18669C4.9248 7.69901 5.52261 9.07096 6.48932 10.0899C4.78598 9.32849 3.30305 8.09381 2.25282 6.49991ZM14.8792 9.91471C15.7515 8.9159 16.2844 7.61394 16.2844 6.18669C16.2844 5.20568 16.0346 4.28228 15.5949 3.47643C16.842 4.22969 17.9266 5.25479 18.7468 6.49991C17.7735 7.97742 16.4275 9.14521 14.8792 9.91471Z" fill="#FCB90B"/>
</svg>
